<?xml version="1.0" encoding="utf-8" ?><svg xmlns="http://www.w3.org/2000/svg" xmlns:xlink="http://www.w3.org/1999/xlink" width="512" height="512" viewBox="0 0 512 512"><clipPath id="cl_3"><rect x="-0.00038146973" y="-7.6293945e-05" width="512" height="512"/></clipPath><g clip-path="url(#cl_3)"><path fill="#16173B" transform="matrix(0.887348 0 0 0.958802 -190.78 -207.101)" d="M421.997 310.206C451.556 307.468 462.425 323.648 481.506 343.026L512.583 374.435C521.79 383.786 533.985 395.204 541.669 404.847C552.406 420.714 543.223 443.327 528.269 452.163C501.933 467.726 487.535 454.329 468.958 435.285L445.694 411.42C440.178 405.802 435.19 399.643 427.351 398.117L426.638 397.984C424.506 398.857 422.686 399.668 420.96 401.266C409.684 411.709 398.993 423.091 388.148 434.061C376.518 446.124 363.837 457.476 353.142 470.388C350.35 473.919 347.012 480.411 348.127 484.959C350.373 494.127 362.348 504.607 368.879 511.178L392.868 535.169C402.299 544.576 412.145 555.15 422.407 563.556C431.182 570.744 442.005 555.983 447.387 550.803C463.621 535.182 479.272 510.901 502.116 505.379C511.939 503.004 521.771 506.631 529.845 512.042C537.995 519.217 542.901 526.837 545.302 537.579C549.386 555.848 531.899 569.858 520.258 581.91C509.415 593.179 498.476 604.357 487.442 615.441C480.733 622.234 462.773 641.341 456.202 646.237C450.915 650.195 444.762 652.836 438.251 653.942C409.43 658.971 395.263 640.402 377.411 622.334L340.125 584.948L297.099 541.944C281.621 526.545 264.53 513.566 260.521 491.005C255.266 461.431 279.05 442.897 297.577 424.145C312.838 408.476 328.225 392.93 343.735 377.508L380.951 339.886C392.845 327.903 404.573 312.909 421.997 310.206Z"/><path fill="#FB641F" transform="matrix(0.887348 0 0 0.958802 -190.78 -207.101)" d="M567.961 310.653C594.257 306.825 609.157 325.031 625.777 341.665L659.109 375.223L706.718 422.569C716.616 432.463 730.757 445.505 738.038 456.919C748.649 473.552 747.98 499.404 734.96 514.631C725.693 525.469 715.929 535.15 705.978 545.233L660.71 590.99L633.155 618.799C611.561 640.818 597.782 660.993 563.895 652.506C544.703 646.776 532.59 629.963 518.32 616.525C534.162 600.122 550.475 584.178 567.237 568.715C572.762 570.533 577.329 572.985 582.15 568.311C588.674 561.984 594.7 555.174 601.08 548.683C616.746 532.626 632.521 516.677 648.405 500.835C653.238 495.955 657.811 491.131 657.637 483.977C657.471 479.095 655.789 474.386 652.825 470.503C647.866 463.901 637.895 454.615 631.818 448.789C624.497 441.745 617.24 434.636 610.046 427.463C581.509 399.261 552.726 369.879 523.657 342.385C536.93 326.512 546.566 314.025 567.961 310.653Z"/></g></svg>