<?xml version="1.0" encoding="utf-8" ?><svg xmlns="http://www.w3.org/2000/svg" xmlns:xlink="http://www.w3.org/1999/xlink" width="707" height="196" viewBox="0 0 707 196"><clipPath id="cl_4"><rect y="6.1035156e-05" width="707" height="196"/></clipPath><g clip-path="url(#cl_4)"><path fill="#17163D" transform="translate(-160 -414)" d="M248.646 449.655C251.521 449.906 254.285 450.114 256.949 451.346C262.02 453.69 291.772 483.033 293.025 487.472C293.899 490.562 293.037 493.825 291.341 496.47C289.113 499.947 285.895 502.685 281.8 503.537C268.728 506.259 259.734 487.335 250.001 481.395C249.823 481.286 249.642 481.181 249.462 481.075C244.69 484.227 218.893 508.231 220.816 512.893C223.466 519.319 243.667 538.946 249.838 542.725C261.745 534.84 270.799 513.3 286.888 522.794C298.668 532.769 292.008 541.583 282.904 549.262C273.637 557.078 254.856 584.047 241.144 571.898C224.465 557.121 206.95 538.997 191.503 522.739C181.729 512.451 194.459 496.676 202.695 490.19C214.2 480.767 235.354 452.053 248.646 449.655Z"/><path fill="#FB6924" transform="translate(-160 -414)" d="M300.556 450.198C301.843 450.126 303.131 450.086 304.419 450.079C314.215 450.098 321.563 460.159 328.072 466.705L355.459 494.225C363.243 502.078 371.39 511.344 363.025 523.181C358.165 530.059 350.17 536.409 344.247 542.594C336.032 551.174 327.204 559.455 318.788 567.859C312.948 573.502 309.283 574.779 301.399 574.453C293.017 571.976 288.985 566.736 283.293 560.572C288.081 555.356 294.254 548.131 300.006 544.166C301.84 542.902 303.01 543.608 305.019 544.14C312.54 536.712 327.851 523.254 333.615 513.714C334.407 512.404 331.225 506.771 329.97 505.488C315.389 490.587 299.517 476.678 284.944 461.749C289.466 456.206 293.173 451.726 300.556 450.198Z"/><path fill="#FB6924" transform="translate(-160 -414)" d="M655.473 477.421C666.276 477.569 677.572 477.525 688.39 477.477C707.39 477.393 718.511 493.974 701.359 507.235C711.968 512.065 715.094 519.032 711.065 530.208C704.168 541.927 688.001 540.086 676.239 540.047L655.324 539.96L655.473 477.421ZM669.034 529.335C677.024 529.417 690.027 530.669 696.495 526.808C708.669 510.788 675.972 513.434 669.006 513.498L669.034 529.335ZM668.98 503.392C676.423 503.369 686.991 504.465 692.988 500.787C705.097 485.617 675.747 488.006 668.951 487.762C668.968 492.952 669.033 498.209 668.98 503.392Z"/><path fill="#17163D" transform="translate(-160 -414)" d="M570.229 473.729C574.277 473.995 578.777 473.793 582.867 473.703L583.011 539.583C578.759 539.856 574.493 539.844 570.242 539.548C570.157 537.562 570.246 536.141 570.364 534.149C562.297 541.442 554.179 542.261 544.144 538.521C521.555 525.887 528.086 491.931 554.403 490.933C560.489 490.702 565.316 493.429 569.483 497.705C569.782 493.855 569.131 475.391 570.229 473.729ZM557.439 529.94C575.629 526.624 573.126 502.731 555.773 502.136C538.602 504.707 540.774 529.653 557.439 529.94Z"/><path fill="#17163D" transform="translate(-160 -414)" d="M492.462 491.611C499.354 490.862 505.594 491.141 511.814 494.644C517.404 497.8 521.464 503.099 523.056 509.318C527.02 524.465 517.859 536.593 503.293 540.246C496.416 541.035 489.597 540.615 483.426 537.152C477.831 534.018 473.792 528.698 472.275 522.468C468.545 507.178 477.486 494.986 492.462 491.611ZM499.125 529.938C515.988 526.59 513.681 501.454 496.702 502.067C478.638 505.296 482.606 531.262 499.125 529.938Z"/><path fill="#FB6924" transform="translate(-160 -414)" d="M809.287 491.233C828.369 490.413 836.271 502.389 836.295 519.986C824.352 519.949 810.843 520.59 799.219 520.255C800.434 523.297 801.58 525.336 804.33 527.205C813.304 533.303 821.528 526.518 826.301 525.86L827.923 527.117C829.631 528.814 831.785 530.715 833.58 532.374C823.187 542.288 807.01 544.212 795.339 535.32C790.202 531.412 786.859 525.598 786.065 519.193C784.049 503.755 794.351 492.677 809.287 491.233ZM799.235 512.063L813.472 512.073L823.917 512.1C821.717 505.023 818.057 501.581 810.444 501.555C803.465 503.329 801.699 505.405 799.235 512.063Z"/><path fill="#17163D" transform="translate(-160 -414)" d="M617.446 491.21C636.448 491.578 644.008 501.708 643.908 519.85L619.872 519.957C615.982 519.964 610.77 519.716 607.056 520.134C605.474 522.99 608.963 524.988 610.937 526.567C618.264 532.428 625.939 529.134 633.53 526.05C634.088 525.824 634.836 526.729 635.303 527.111L640.768 532.578C630.823 542.506 613.329 543.714 602.216 534.813C587.716 523.2 592.157 497.884 610.298 492.534C612.93 491.758 614.733 491.497 617.446 491.21ZM606.42 511.983C611.808 512.04 617.196 512.055 622.584 512.03L632.32 512C628.844 504.457 625.336 500.322 616.24 501.526C609.664 503.92 608.734 505.145 606.42 511.983Z"/><path fill="#17163D" transform="translate(-160 -414)" d="M436.657 476.643C448.821 475.034 458.223 478.94 466.93 487.132C463.96 489.574 461.103 492.591 458.377 495.342C429.006 468.574 402.979 519.236 438.05 529.34C443.235 530.834 450.484 527.951 454.753 524.876C455.443 524.267 456.157 523.693 456.868 523.108C460.282 523.116 463.641 527.597 466.395 530.29C461.793 535.491 455.572 538.989 448.738 540.218C439.301 541.888 428.364 540.203 420.482 534.499C413.729 529.644 409.198 522.29 407.899 514.075C404.75 494.055 417.168 479.67 436.657 476.643Z"/><path fill="#FB6924" transform="translate(-160 -414)" d="M752.991 480.458L766.457 480.458L766.499 492.377C770.351 492.127 774.664 492.356 778.564 492.472L778.722 502.943L766.289 503C766.386 506.63 766.209 510.357 766.137 513.986C765.923 524.741 765.195 532.335 778.333 528.643L780.274 533.618L782.011 537.937C777.675 539.925 774.128 540.776 769.318 540.766C749.309 540.725 752.931 516.594 753.052 503.086L745.422 503.01C745.29 499.158 745.207 496.261 745.445 492.432C747.929 492.401 750.584 492.487 753.084 492.522L752.991 480.458Z"/><path fill="#FB6924" transform="translate(-160 -414)" d="M723.908 492.202C728.108 492.009 732.851 492.13 737.095 492.145C737.5 500.324 737.128 510.577 737.184 518.904C737.222 524.549 737.43 534.797 736.922 540.025L723.619 540.026C723.406 530.224 723.631 520.065 723.507 510.23C723.463 506.75 723.303 495.053 723.908 492.202Z"/><path fill="#FB6924" transform="translate(-160 -414)" d="M727.269 470.134C739.368 468.664 743.031 479.445 732.922 484.767C731.419 484.976 730.463 485.114 728.939 484.859C726.688 484.476 724.686 483.206 723.381 481.333C720.102 476.591 723.004 472.626 727.269 470.134Z"/></g></svg>